<?xml version="1.0" encoding="UTF-8"?>
<svg fill="#FFFFFF" width="100pt" height="100pt" version="1.1" viewBox="0 0 100 100" xmlns="http://www.w3.org/2000/svg">
 <g>
  <path d="m50 2.5c-26.199 0-47.5 21.301-47.5 47.5s21.301 47.5 47.5 47.5 47.5-21.301 47.5-47.5-21.301-47.5-47.5-47.5zm0 89.199c-23 0-41.699-18.699-41.699-41.699s18.699-41.699 41.699-41.699 41.699 18.699 41.699 41.699-18.699 41.699-41.699 41.699z"/>
  <path d="m72.5 27.5c-1.3984-1.3984-3.6992-1.3984-5.1016 0l-17.398 17.398-17.398-17.398c-1.3984-1.3984-3.6992-1.3984-5.1016 0-1.3984 1.3984-1.3984 3.6992 0 5.1016l17.398 17.398-17.398 17.398c-1.3984 1.3984-1.3984 3.6992 0 5.1016 0.69922 0.69922 1.6016 1.1016 2.6016 1.1016 0.89844 0 1.8008-0.39844 2.6016-1.1016l17.398-17.398 17.398 17.398c0.69922 0.69922 1.6016 1.1016 2.6016 1.1016 0.89844 0 1.8008-0.39844 2.6016-1.1016 1.3984-1.3984 1.3984-3.6992 0-5.1016l-17.398-17.398 17.398-17.398c1.1953-1.4023 1.1953-3.7031-0.20312-5.1016z"/>
 </g>
</svg>
