<?xml version="1.0" encoding="UTF-8"?>
<svg fill="#FFFFFF" width="100pt" height="100pt" version="1.1" viewBox="0 0 100 100" xmlns="http://www.w3.org/2000/svg">
 <g>
  <path d="m93.098 36.465l-1.1836-0.67969 6.625-3.8281 0.007813-3.457-25.488-14.723c-3.2266-1.8672-6.1484-1.9609-8.1953-0.60938v-0.015625l-61.449 35.484-0.26953 0.15234-0.13672 0.074219v0.007813c-1.8633 1.2266-3 3.6484-3.0078 7-0.015625 7.0742 4.9688 15.723 11.129 19.27l20.07 11.586c2.0312 1.1719 3.8594 1.3008 5.1289 0.5625v0.007813l0.14453-0.085937 61.586-35.562 0.125-0.070313v-0.011719c1.1211-0.64062 1.8125-1.957 1.8203-3.8281 0.015625-4.0117-3.0898-9.0742-6.9062-11.273zm-31.105-18.203l0.44141-0.25391c0.085937-0.050781 0.16016-0.09375 0.25781-0.14453l1.4062-0.81641c0.027344-0.015625 0.0625-0.023437 0.085938-0.042969 1.8789-0.98438 4.5117-1.8359 7.8906-0.25391 0.15234 0.058594 0.30078 0.12891 0.44922 0.21484 0.17187 0.085937 0.33984 0.17969 0.51953 0.27734l22.508 12.988-6.625 3.8242-2.9961 1.7305-6.625 3.8242-3 1.7305-39.613 22.875-12.91-7.4492-2.9922-1.7305-9.5977-5.5352c-0.60156-0.34766-1.2031-0.63672-1.7812-0.86719zm-30.789 65l-20.07-11.586c-4.4922-2.5898-8.1367-8.8984-8.1172-14.062 0.019531-5.1641 3.6836-7.2539 8.168-4.6523l6.6016 3.8047-6.6133 3.8242-0.019531 3.457 0.007812 0.007813 20.059 11.582c2.168 1.2461 3.9258 3.9727 3.9141 6.0781-0.003906 2.1016-1.7656 2.7969-3.9297 1.5469zm65.781-36.988c-0.09375 2.0156-1.2734 3.2188-3.668 4.6562-0.066406 0.042968-0.13672 0.074218-0.20312 0.11719-0.10156 0.058594-0.20312 0.12891-0.3125 0.1875-0.074219 0.042969-0.14453 0.085937-0.21484 0.11719l-54.469 31.453c-0.29688-3.8984-3.2578-8.5469-6.8789-10.629l-17.07-9.8594 6.6133-3.8203 15.898 9.1719 42.609-24.598 2.9961-1.7422 6.625-3.8203 4.1719 2.4141c2.1562 1.25 3.9141 3.9766 3.9062 6.082 0.003907 0.09375 0.003907 0.18359-0.003906 0.26953z"/>
  <path d="m30.945 52.629l6.5938 3.9375 16.957-9.5195-6.8242-4.0781-2.9453-1.7578-6.7227-4.0195-16.957 9.5195 6.9531 4.1562z"/>
  <path d="m63.141 26.898l2.2891-1.2812 5.6055-3.1445-1.9258-1.1523-1.375-0.82031-0.84375 0.47266-2.0117 1.1328-2.668 1.4961-20.84 11.699 3.3008 1.9688z"/>
  <path d="m64.484 29.969l-10.672 5.9922-5.8438 3.2812 0.082031 0.046874 2.9453 1.7617 0.27344 0.16406 14.93-8.3828 2.1641-1.2188 5.2461-2.9414 3.0391-1.707 0.98437-0.55469-3.2969-1.9688-1.043 0.58203-0.26953 0.15234-6.3789 3.582z"/>
  <path d="m70.613 34.176l-2.3516 1.3203-13.695 7.6875 3.2969 1.9727 12.918-7.2539 2.8242-1.5859 6.7148-3.7656 3.043-1.7109 0.86719-0.48438-3.2969-1.9727-0.92969 0.51953-3.0352 1.707z"/>
  <path d="m91.348 44.938c-0.17578-0.21094-0.44922-0.50391-0.76562-0.6875l-1.6719-0.96484-50.125 28.941 0.65234 0.89844c0.34375 0.46875 0.66406 0.95703 0.96875 1.4531l0.50781 0.83594 49.152-28.383 0.41797-0.23047s-1.4727 0.83594-0.003906-0.003906c1.4727-0.84375 0.86719-1.8594 0.86719-1.8594z"/>
 </g>
</svg>
