<?xml version="1.0" encoding="UTF-8"?>
<svg width="100pt" height="100pt" version="1.1" viewBox="0 0 100 100" xmlns="http://www.w3.org/2000/svg">
 <g>
  <path d="m38 26.699c-3.3984 3.3984-4.6992 8.6992-6.3008 13.199-2 6-4.1016 12-6.1016 18s-4.1016 12-6.1016 18c-1 3.1016-3.8984 7.8008-1 10.602 1.3008 1.1992 2.8984-0.30078 2.3008-1.8008-0.19922-0.69922-0.60156-1.3008-1-1.8984-0.39844-0.69922-1.6016-0.30078-1.3008 0.60156-0.10156 0.39844-0.10156 0.89844-0.19922 1.3008 0.89844 0.39844 1.8008 0.80078 2.6992 1.1016 1.6992-9.6016 6.3008-19.301 9.3984-28.602 3.1992-9.6016 7.3984-19.199 10-29 0.40625-1.5039-1.3945-2.5039-2.3945-1.5039z"/>
  <path d="m19.898 85.898c3.6016 8.3008 15.898 10.301 23.801 9.6016 5.3008-0.39844 20.5-2.1992 19.602-10.199-0.10156-0.69922-1.1016-0.89844-1.3008-0.19922-0.69922 2.6992-8.6992 3.5-10.801 4-3.6992 0.80078-7.3984 1.5-11.199 1.3984-7.3008-0.10156-12-3.5-18.301-6.6992-1.3008-0.5-2.3984 0.89844-1.8008 2.0977z"/>
  <path d="m37.301 20.602c1.3984 5.1992 4.1992 10 6.3008 15 2.1016 5 4 10.199 5.8008 15.301 1.8008 4.8984 3.5 9.8008 5.1992 14.699 1.8008 5.1016 3.1992 10.801 5.8008 15.602 0.69922-1.1992 1.3984-2.5 2.1016-3.6992-1.3984-0.10156-1.8984-0.19922-3.1016 0.39844-0.60156 0.30078-0.19922 1.3008 0.5 1.1016 0.19922-0.10156 0.30078-0.19922 0.5-0.30078-2.1016 3.8008 5.3008 5.3008 4.5 0.60156-0.89844-5.3984-3.5-10.801-5.3008-16-1.8984-5.5-3.8008-10.898-5.8984-16.301-3.3984-9.1992-6.8984-20.398-13.199-28.102-1.2031-1.7031-3.7031-0.10156-3.2031 1.6992z"/>
  <path d="m25.699 79.398c5.1016 3.3008 11.398 4.3008 17.301 3.3984 3.8008-0.5 11.199-1.8008 11.301-6.6992 0-1.3008-1.8008-2.1992-2.6992-1.1016-1.1016 1.1992-2.3008 2.1016-3.3984 3.3008-0.39844 0.39844 0.10156 1.1992 0.69922 0.89844 1.1016-1 2.3008-1.5 3.8008-1.5 0.30078-1 0.5-2 0.80078-3-3.3984-1.5-6.3984 1.3008-9.8008 2.1016-5.3984 1.1016-10.398 0-15.301-2.1016-3.1016-1.1953-5.7031 2.8047-2.7031 4.7031z"/>
  <path d="m30.199 64.699c3.8008 1.8008 7.6016 2.5 11.699 1.8008 3-0.5 8.6992-1.6992 9.3008-5.3008 0.19922-1.1016-0.89844-2.3008-2-1.6016-1.3984 0.89844-2.1992 1.8008-3.1016 3.3008-0.39844 0.60156 0.5 1.1992 1 0.69922 0.89844-0.89844 2-1.3984 3.1992-1.5v-2.6992c-2.8008-0.5-5 1.8008-7.6992 2.5-3.6016 0.89844-7.5 0.60156-11-0.5-1.8984-0.39844-3.1992 2.5-1.3984 3.3008z"/>
  <path d="m35.699 50.898c4.8984 2.8008 10 1.1016 13-3.5 0.30078-0.5-0.10156-1.1992-0.69922-1.1992-0.89844 0.10156-1.8008 0.10156-2.8008 0.19922-0.69922 0-0.69922 1.1016 0 1.1016 0.80078 0.10156 1.6992 0.10156 2.5 0.19922-0.10156-0.39844-0.19922-0.89844-0.30078-1.3008-2.3984 2.1992-6.8984 2.6016-9.8984 1.1992-2.1016-0.79688-3.8984 2.0039-1.8008 3.3008z"/>
  <path d="m38.699 41.199c1.3984 0.39844 3.3008 0.5 4.3008-0.80078 0.5-0.60156 0.19922-1.5-0.60156-1.5-1.1016 0-2 0.39844-3.1016 0.19922-1.3984-0.19922-1.9961 1.7031-0.59766 2.1016z"/>
  <path d="m93.898 14.602c-4.3008-5.8008-13.102-5.6992-18.699-1.8984-6.3008 4.3008-10.199 13.801-6.8984 21 3.8008 8.1992 14.102 9.3984 21.898 7.1016 6.6016-2 11.199-8.5 4.1992-13.398-14.898-10.508-33.598 9.8945-28.398 24.895 2.6016 7.5 10.102 12.801 18.199 11.199 4.8984-1 13.398-7.6016 7.8984-13.102-2.1992-2.1992-5.8008-1.8008-8.1016 0-3.6016 2.8984-4.5 9-5.1016 13.199-1.1992 9.5 3.1016 19 12.199 22.699 0.69922 0.30078 1.1992-0.89844 0.5-1.3008-6.1992-3.5-8.1992-9.5-8.3984-16.301-0.10156-3.1992 0.30078-6.3008 1-9.3008 0.5-2 0.30078-2.6992 2.3008-3.1016 3.3984-0.60156-0.80078 1.3008-1.3984 1.5-6.3984 2.3984-12.801-2.1992-14.398-8.3984-1.3984-5.6016 1.1016-11.5 5.3008-15.199 3.1992-2.8984 10.398-6.1992 14.5-3.1016 4.3008 3.3008-1.8008 4.8984-4.1992 5.3008-3.3984 0.60156-7.3008 0.39844-10.199-1.5-5.8008-3.8008-4.1992-12.102-0.10156-16.5 4.5-4.8984 10.301-4.6016 16-2 1.1992 0.40625 2.6992-0.59375 1.8984-1.793z"/>
  <path d="m11.398 18.102c0.30078-0.30078 0.69922-0.69922 0.89844-1.1016 0.5-0.80078 0.60156-1.8008 0.30078-2.6992-0.39844-0.80078-1.1016-1.3984-2-1.6992-0.5-0.10156-1.1016-0.19922-1.6016-0.19922-0.99609-0.10156-2.1953 0.69922-2.7969 1.5977-0.5 1-0.5 2-0.097657 3 0.89844 2.1016 3.6992 2.6992 5.2969 1.1016z"/>
  <path d="m54.898 11.699c1.5 0 2.8984-1.3008 2.8984-2.8984-0.097656-1.5-1.2969-2.8008-2.8984-2.8008-1.5 0-2.8984 1.3008-2.8984 2.8984 0.10156 1.5 1.3008 2.8008 2.8984 2.8008z"/>
  <path d="m12.898 56c1.5 0 2.8008-1.3008 2.8008-2.8008-0.10156-1.5-1.1992-2.8008-2.8008-2.8008-1.5 0-2.8008 1.3008-2.8008 2.8008 0.10156 1.5 1.3008 2.8008 2.8008 2.8008z"/>
  <path d="m22.102 33.898c1.5 0 3-1.3008 2.8984-2.8984-0.10156-1.6016-1.3008-2.8984-2.8984-2.8984-1.5 0-3 1.3008-2.8984 2.8984 0.097656 1.6016 1.2969 2.8984 2.8984 2.8984z"/>
  <path d="m7.8008 78c0.10156-0.89844-0.60156-1.8984-1.5-2-0.60156-0.10156-1.1992 0-1.6992 0.39844-0.39844 0.39844-0.69922 1.1016-0.39844 1.6992 0.10156 0.19922 0.19922 0.39844 0.30078 0.60156-0.10156-0.30078-0.19922-0.60156-0.19922-0.89844v-0.30078c-0.30078 1.1016 0.39844 2.1016 1.5 2.3008 1.0938 0.097657 1.8945-0.69922 1.9961-1.8008z"/>
  <path d="m77.301 90.801c0.89844 0 1.8008-0.80078 1.6992-1.6992 0-0.89844-0.80078-1.6992-1.6992-1.6992-0.89844 0-1.8008 0.80078-1.6992 1.6992 0 1 0.69922 1.6992 1.6992 1.6992z"/>
 </g>
</svg>
