<?xml version="1.0" encoding="UTF-8"?>
<svg width="100pt" height="100pt" version="1.1" viewBox="0 0 100 100" xmlns="http://www.w3.org/2000/svg">
 <g>
  <path d="m15.52 45.238c-2.7617 0-5 2.2422-5 5v43.762c0 1.3242 0.52734 2.5977 1.4648 3.5352s2.2109 1.4648 3.5352 1.4648h14.48c2.6289 0.007812 4.8164-2.0273 5-4.6484l3.1016 1.8594c2.9492 1.7695 6.3281 2.707 9.7695 2.7109h21.129c2.5547 0.027344 5.0898-0.48047 7.4414-1.4805 6.75-3 7.8086-8.2695 7.3086-11.77 3.5508-2.9844 4.8516-7.8711 3.25-12.223 1.6719-2.0234 2.5625-4.582 2.5-7.2109-0.10938-2.0547-0.82422-4.0352-2.0508-5.6875 1.5742-3.6211 0.65234-7.8438-2.2891-10.48-0.20703-0.19141-0.42188-0.375-0.64844-0.55078-1.1406-0.84375-2.4492-1.4258-3.8398-1.6992h-0.10938c-6.6289-1.4102-11.09-1.5-17.648-1.5-0.25-1.5117-0.23828-4.6797 1.7383-10.648 1.8281-5.5312 1.6719-10.102-0.48047-13.59v-0.003906c-1.7969-2.8242-4.7539-4.707-8.0703-5.1367h-0.3125c-2.3594-0.042968-4.457 1.4844-5.1484 3.7383-0.035156 0.11719-0.0625 0.23828-0.082031 0.35937l-0.75 5.3984v0.003906c-0.22266 1.6211-0.69531 3.1992-1.3984 4.6797l-7.2891 15.309c-1.1094 2.5625-3.3906 4.4258-6.1211 5v-1.1914c0-1.3242-0.52734-2.5977-1.4648-3.5352s-2.2109-1.4648-3.5352-1.4648zm0 48.762v-43.762h14.48v43.762zm20-37.539c4.5039-0.78906 8.3008-3.8008 10.102-8l7.2305-15.27c0.91797-1.9414 1.5352-4.0117 1.8281-6.1406l0.76953-5.0508c0.035156-0.035156 0.082031-0.058594 0.12891-0.070312 1.7656 0.28125 3.3281 1.2891 4.3125 2.7812 1.3203 2.1406 1.3203 5.3906 0 9.3906-1.9414 5.8398-2.5391 10.449-1.8008 13.711v-0.003906c0.46875 2.0703 2.3164 3.5352 4.4414 3.5195 6.6094 0 10.691 0.058594 17 1.3906h0.10156-0.003906c0.66797 0.12109 1.3008 0.38672 1.8516 0.78125l0.32031 0.26953c2.5586 2.3086 0.94141 5.2695 0.60156 5.8203h-0.003906c-0.66016 1.0352-0.47266 2.3945 0.44141 3.2109 0.97266 0.98438 1.5703 2.2773 1.6914 3.6602-0.058594 1.8594-0.87109 3.6172-2.25 4.8672-0.76953 0.81641-0.90625 2.0391-0.33203 3 0.10938 0.19141 2.6797 4.6602-2.4102 8.3984v0.003907c-0.875 0.65625-1.2266 1.8008-0.87891 2.8398 0.26953 0.80078 1.3281 4.8984-4.1602 7.3086-1.7422 0.72656-3.6133 1.082-5.5 1.043h-21.172c-2.5312-0.003906-5.0156-0.69531-7.1875-2l-5.6406-3.3828v-32z"/>
  <path d="m25.809 86.219c0 4.0664-6.0977 4.0664-6.0977 0s6.0977-4.0664 6.0977 0"/>
 </g>
</svg>
