<?xml version="1.0" encoding="UTF-8"?>
<svg fill="#FFFFFF" width="100pt" height="100pt" version="1.1" viewBox="0 0 100 100" xmlns="http://www.w3.org/2000/svg">
 <g>
  <path d="m49.781 52.512l-12.25-16.953-4.8594 3.5117 16.527 22.879 44.859-48.301-4.3984-4.0781z"/>
  <path d="m85.199 42.59c0.49219 2.4414 0.73828 4.9219 0.74219 7.4102 0 13.219-7.0547 25.434-18.5 32.043-11.449 6.6094-25.555 6.6094-37 0-11.449-6.6094-18.5-18.824-18.5-32.043-0.003906-13.031 6.8516-25.102 18.043-31.777 11.191-6.6758 25.07-6.9727 36.535-0.78125l2.8594-5.2812c-11.117-6.0078-24.32-6.8203-36.09-2.2188-11.773 4.6016-20.926 14.148-25.023 26.102-4.1016 11.957-2.7305 25.113 3.7422 35.969 6.4688 10.855 17.391 18.316 29.859 20.395 12.465 2.0781 25.215-1.4336 34.863-9.6016 9.6445-8.168 15.207-20.164 15.211-32.805-0.003906-2.8828-0.29297-5.7617-0.86328-8.5898z"/>
 </g>
</svg>
